<svg width="1440" height="84" viewBox="0 0 1440 84" fill="none" xmlns="http://www.w3.org/2000/svg">
<rect width="1440" height="84" fill="white"/>
<path d="M511.148 42.574C511.148 41.638 511.286 40.762 511.562 39.946C511.838 39.118 512.234 38.404 512.75 37.804C513.278 37.192 513.92 36.712 514.676 36.364C515.444 36.016 516.308 35.842 517.268 35.842C518.024 35.842 518.678 35.944 519.23 36.148C519.782 36.34 520.244 36.586 520.616 36.886C521 37.174 521.312 37.492 521.552 37.84C521.792 38.188 521.972 38.518 522.092 38.83C522.224 39.13 522.314 39.394 522.362 39.622C522.41 39.838 522.434 39.958 522.434 39.982H521.642C521.558 39.442 521.384 38.962 521.12 38.542C520.856 38.11 520.526 37.744 520.13 37.444C519.734 37.144 519.29 36.916 518.798 36.76C518.318 36.604 517.808 36.526 517.268 36.526C516.428 36.526 515.678 36.688 515.018 37.012C514.358 37.336 513.8 37.774 513.344 38.326C512.888 38.866 512.54 39.502 512.3 40.234C512.06 40.966 511.94 41.746 511.94 42.574C511.94 43.402 512.06 44.182 512.3 44.914C512.54 45.646 512.888 46.288 513.344 46.84C513.8 47.38 514.358 47.812 515.018 48.136C515.678 48.46 516.428 48.622 517.268 48.622C517.892 48.622 518.474 48.496 519.014 48.244C519.566 47.98 520.046 47.638 520.454 47.218C520.862 46.786 521.186 46.294 521.426 45.742C521.678 45.178 521.822 44.596 521.858 43.996H522.65C522.578 44.764 522.386 45.472 522.074 46.12C521.774 46.768 521.384 47.332 520.904 47.812C520.436 48.28 519.89 48.646 519.266 48.91C518.642 49.174 517.976 49.306 517.268 49.306C516.308 49.306 515.444 49.132 514.676 48.784C513.92 48.436 513.278 47.962 512.75 47.362C512.234 46.75 511.838 46.036 511.562 45.22C511.286 44.392 511.148 43.51 511.148 42.574ZM525.67 44.374C525.67 43.714 525.76 43.096 525.94 42.52C526.132 41.932 526.408 41.416 526.768 40.972C527.128 40.528 527.572 40.18 528.1 39.928C528.628 39.664 529.234 39.532 529.918 39.532C530.602 39.532 531.208 39.664 531.736 39.928C532.264 40.18 532.708 40.528 533.068 40.972C533.428 41.416 533.698 41.932 533.878 42.52C534.07 43.096 534.166 43.714 534.166 44.374C534.166 45.034 534.07 45.658 533.878 46.246C533.698 46.834 533.428 47.35 533.068 47.794C532.708 48.226 532.264 48.574 531.736 48.838C531.208 49.09 530.602 49.216 529.918 49.216C529.234 49.216 528.628 49.09 528.1 48.838C527.572 48.574 527.128 48.226 526.768 47.794C526.408 47.35 526.132 46.834 525.94 46.246C525.76 45.658 525.67 45.034 525.67 44.374ZM526.354 44.374C526.354 44.926 526.432 45.46 526.588 45.976C526.744 46.48 526.972 46.93 527.272 47.326C527.572 47.722 527.944 48.04 528.388 48.28C528.832 48.508 529.342 48.622 529.918 48.622C530.494 48.622 531.004 48.508 531.448 48.28C531.892 48.04 532.264 47.722 532.564 47.326C532.864 46.93 533.092 46.48 533.248 45.976C533.404 45.46 533.482 44.926 533.482 44.374C533.482 43.822 533.404 43.294 533.248 42.79C533.092 42.274 532.864 41.818 532.564 41.422C532.264 41.026 531.892 40.714 531.448 40.486C531.004 40.246 530.494 40.126 529.918 40.126C529.342 40.126 528.832 40.246 528.388 40.486C527.944 40.714 527.572 41.026 527.272 41.422C526.972 41.818 526.744 42.274 526.588 42.79C526.432 43.294 526.354 43.822 526.354 44.374ZM537.69 39.748H538.374V41.728H538.41C538.53 41.38 538.698 41.074 538.914 40.81C539.142 40.534 539.4 40.3 539.688 40.108C539.988 39.916 540.312 39.772 540.66 39.676C541.008 39.58 541.362 39.532 541.722 39.532C542.262 39.532 542.718 39.598 543.09 39.73C543.474 39.862 543.786 40.036 544.026 40.252C544.266 40.468 544.452 40.714 544.584 40.99C544.728 41.254 544.83 41.524 544.89 41.8C544.95 42.076 544.986 42.346 544.998 42.61C545.01 42.862 545.016 43.084 545.016 43.276V49H544.332V43.15C544.332 42.922 544.314 42.634 544.278 42.286C544.242 41.938 544.134 41.608 543.954 41.296C543.786 40.972 543.522 40.696 543.162 40.468C542.814 40.24 542.328 40.126 541.704 40.126C541.176 40.126 540.708 40.222 540.3 40.414C539.892 40.606 539.544 40.876 539.256 41.224C538.968 41.56 538.746 41.968 538.59 42.448C538.446 42.916 538.374 43.432 538.374 43.996V49H537.69V39.748ZM552.346 40.342H550.33V46.804C550.33 47.176 550.372 47.47 550.456 47.686C550.54 47.902 550.666 48.07 550.834 48.19C551.014 48.298 551.224 48.364 551.464 48.388C551.716 48.412 552.004 48.418 552.328 48.406V49C551.98 49.024 551.638 49.024 551.302 49C550.978 48.964 550.69 48.874 550.438 48.73C550.186 48.574 549.982 48.346 549.826 48.046C549.682 47.746 549.622 47.332 549.646 46.804V40.342H547.936V39.748H549.646V36.868H550.33V39.748H552.346V40.342ZM561.66 47.164H561.624C561.516 47.44 561.36 47.704 561.156 47.956C560.952 48.196 560.7 48.412 560.4 48.604C560.112 48.796 559.782 48.946 559.41 49.054C559.038 49.162 558.63 49.216 558.186 49.216C557.202 49.216 556.44 49.006 555.9 48.586C555.36 48.154 555.09 47.494 555.09 46.606C555.09 46.066 555.198 45.628 555.414 45.292C555.63 44.944 555.9 44.674 556.224 44.482C556.56 44.278 556.926 44.134 557.322 44.05C557.73 43.966 558.12 43.906 558.492 43.87L559.554 43.78C560.046 43.744 560.43 43.69 560.706 43.618C560.994 43.534 561.21 43.426 561.354 43.294C561.498 43.15 561.588 42.97 561.624 42.754C561.66 42.538 561.678 42.268 561.678 41.944C561.678 41.692 561.63 41.458 561.534 41.242C561.438 41.026 561.288 40.834 561.084 40.666C560.88 40.498 560.616 40.366 560.292 40.27C559.968 40.174 559.572 40.126 559.104 40.126C558.276 40.126 557.604 40.33 557.088 40.738C556.584 41.146 556.308 41.764 556.26 42.592H555.576C555.624 41.572 555.948 40.81 556.548 40.306C557.16 39.79 558.024 39.532 559.14 39.532C560.256 39.532 561.066 39.754 561.57 40.198C562.086 40.63 562.344 41.2 562.344 41.908V47.29C562.344 47.422 562.344 47.554 562.344 47.686C562.356 47.818 562.38 47.938 562.416 48.046C562.452 48.154 562.512 48.244 562.596 48.316C562.68 48.376 562.8 48.406 562.956 48.406C563.076 48.406 563.244 48.388 563.46 48.352V48.928C563.28 48.976 563.094 49 562.902 49C562.626 49 562.404 48.964 562.236 48.892C562.08 48.82 561.96 48.724 561.876 48.604C561.792 48.484 561.732 48.346 561.696 48.19C561.672 48.022 561.66 47.842 561.66 47.65V47.164ZM561.66 43.744C561.492 43.948 561.234 44.086 560.886 44.158C560.55 44.23 560.172 44.284 559.752 44.32L558.6 44.428C558.264 44.464 557.928 44.518 557.592 44.59C557.256 44.65 556.95 44.758 556.674 44.914C556.41 45.07 556.194 45.286 556.026 45.562C555.858 45.826 555.774 46.174 555.774 46.606C555.774 47.29 555.99 47.8 556.422 48.136C556.854 48.46 557.448 48.622 558.204 48.622C558.984 48.622 559.602 48.484 560.058 48.208C560.514 47.92 560.862 47.596 561.102 47.236C561.342 46.864 561.492 46.51 561.552 46.174C561.624 45.826 561.66 45.592 561.66 45.472V43.744ZM573.408 42.61C573.372 42.202 573.264 41.842 573.084 41.53C572.916 41.218 572.694 40.96 572.418 40.756C572.142 40.552 571.818 40.396 571.446 40.288C571.086 40.18 570.696 40.126 570.276 40.126C569.7 40.126 569.19 40.246 568.746 40.486C568.302 40.714 567.93 41.026 567.63 41.422C567.33 41.806 567.102 42.25 566.946 42.754C566.79 43.246 566.712 43.756 566.712 44.284C566.712 44.908 566.784 45.484 566.928 46.012C567.072 46.54 567.294 47.002 567.594 47.398C567.894 47.782 568.266 48.082 568.71 48.298C569.154 48.514 569.676 48.622 570.276 48.622C570.708 48.622 571.104 48.55 571.464 48.406C571.836 48.262 572.16 48.064 572.436 47.812C572.724 47.56 572.958 47.26 573.138 46.912C573.318 46.552 573.438 46.162 573.498 45.742H574.182C574.11 46.294 573.96 46.786 573.732 47.218C573.504 47.65 573.216 48.016 572.868 48.316C572.52 48.604 572.124 48.826 571.68 48.982C571.236 49.138 570.768 49.216 570.276 49.216C569.52 49.216 568.872 49.084 568.332 48.82C567.804 48.544 567.366 48.178 567.018 47.722C566.682 47.266 566.43 46.744 566.262 46.156C566.106 45.556 566.028 44.932 566.028 44.284C566.028 43.636 566.118 43.024 566.298 42.448C566.49 41.872 566.766 41.368 567.126 40.936C567.486 40.504 567.93 40.162 568.458 39.91C568.986 39.658 569.592 39.532 570.276 39.532C570.78 39.532 571.248 39.598 571.68 39.73C572.124 39.85 572.514 40.036 572.85 40.288C573.198 40.54 573.48 40.864 573.696 41.26C573.912 41.644 574.044 42.094 574.092 42.61H573.408ZM581.098 40.342H579.082V46.804C579.082 47.176 579.124 47.47 579.208 47.686C579.292 47.902 579.418 48.07 579.586 48.19C579.766 48.298 579.976 48.364 580.216 48.388C580.468 48.412 580.756 48.418 581.08 48.406V49C580.732 49.024 580.39 49.024 580.054 49C579.73 48.964 579.442 48.874 579.19 48.73C578.938 48.574 578.734 48.346 578.578 48.046C578.434 47.746 578.374 47.332 578.398 46.804V40.342H576.688V39.748H578.398V36.868H579.082V39.748H581.098V40.342ZM592.122 36.148V43.852C592.122 44.104 592.134 44.398 592.158 44.734C592.182 45.07 592.242 45.418 592.338 45.778C592.434 46.126 592.566 46.474 592.734 46.822C592.914 47.158 593.154 47.464 593.454 47.74C593.754 48.004 594.12 48.22 594.552 48.388C594.996 48.544 595.53 48.622 596.154 48.622C596.946 48.622 597.606 48.514 598.134 48.298C598.674 48.07 599.106 47.752 599.43 47.344C599.766 46.924 600.006 46.42 600.15 45.832C600.294 45.244 600.366 44.584 600.366 43.852V36.148H601.158V43.852C601.158 44.62 601.074 45.334 600.906 45.994C600.75 46.654 600.48 47.23 600.096 47.722C599.712 48.214 599.196 48.604 598.548 48.892C597.912 49.168 597.114 49.306 596.154 49.306C595.398 49.306 594.75 49.21 594.21 49.018C593.67 48.826 593.22 48.58 592.86 48.28C592.512 47.968 592.236 47.614 592.032 47.218C591.828 46.822 591.672 46.426 591.564 46.03C591.456 45.622 591.39 45.232 591.366 44.86C591.342 44.476 591.33 44.14 591.33 43.852V36.148H592.122ZM605.542 45.922C605.566 46.354 605.662 46.738 605.83 47.074C605.998 47.398 606.214 47.68 606.478 47.92C606.754 48.148 607.072 48.322 607.432 48.442C607.792 48.562 608.182 48.622 608.602 48.622C608.902 48.622 609.22 48.598 609.556 48.55C609.904 48.49 610.222 48.388 610.51 48.244C610.81 48.1 611.056 47.902 611.248 47.65C611.44 47.386 611.536 47.056 611.536 46.66C611.536 46.144 611.38 45.754 611.068 45.49C610.756 45.226 610.36 45.022 609.88 44.878C609.412 44.734 608.902 44.62 608.35 44.536C607.81 44.44 607.3 44.302 606.82 44.122C606.352 43.942 605.962 43.69 605.65 43.366C605.338 43.03 605.182 42.544 605.182 41.908C605.182 41.452 605.284 41.074 605.488 40.774C605.692 40.462 605.95 40.216 606.262 40.036C606.586 39.856 606.946 39.73 607.342 39.658C607.738 39.574 608.134 39.532 608.53 39.532C609.01 39.532 609.46 39.586 609.88 39.694C610.3 39.802 610.66 39.976 610.96 40.216C611.272 40.456 611.512 40.762 611.68 41.134C611.86 41.506 611.95 41.956 611.95 42.484H611.266C611.266 42.064 611.194 41.704 611.05 41.404C610.918 41.104 610.726 40.864 610.474 40.684C610.234 40.492 609.946 40.354 609.61 40.27C609.274 40.174 608.914 40.126 608.53 40.126C608.218 40.126 607.9 40.156 607.576 40.216C607.264 40.276 606.982 40.378 606.73 40.522C606.478 40.666 606.268 40.852 606.1 41.08C605.944 41.308 605.866 41.584 605.866 41.908C605.866 42.28 605.956 42.58 606.136 42.808C606.316 43.036 606.55 43.222 606.838 43.366C607.138 43.498 607.468 43.606 607.828 43.69C608.2 43.774 608.572 43.858 608.944 43.942C609.4 44.026 609.826 44.128 610.222 44.248C610.63 44.356 610.978 44.512 611.266 44.716C611.566 44.908 611.8 45.16 611.968 45.472C612.136 45.784 612.22 46.18 612.22 46.66C612.22 47.164 612.106 47.578 611.878 47.902C611.65 48.226 611.362 48.49 611.014 48.694C610.666 48.886 610.276 49.018 609.844 49.09C609.424 49.174 609.01 49.216 608.602 49.216C608.074 49.216 607.582 49.144 607.126 49C606.682 48.868 606.292 48.664 605.956 48.388C605.62 48.1 605.356 47.752 605.164 47.344C604.972 46.936 604.87 46.462 604.858 45.922H605.542Z" fill="black"/>
<path d="M653.248 36.832V36.148H663.094V36.832H658.558V49H657.766V36.832H653.248ZM664.309 44.464V44.572C664.309 45.112 664.381 45.628 664.525 46.12C664.669 46.612 664.879 47.044 665.155 47.416C665.443 47.788 665.797 48.082 666.217 48.298C666.649 48.514 667.147 48.622 667.711 48.622C668.635 48.622 669.367 48.382 669.907 47.902C670.447 47.41 670.819 46.732 671.023 45.868H671.707C671.503 46.948 671.059 47.776 670.375 48.352C669.703 48.928 668.809 49.216 667.693 49.216C667.009 49.216 666.409 49.096 665.893 48.856C665.389 48.604 664.963 48.268 664.615 47.848C664.279 47.416 664.027 46.912 663.859 46.336C663.691 45.748 663.607 45.118 663.607 44.446C663.607 43.798 663.691 43.18 663.859 42.592C664.039 41.992 664.303 41.47 664.651 41.026C664.999 40.57 665.431 40.21 665.947 39.946C666.475 39.67 667.093 39.532 667.801 39.532C668.449 39.532 669.019 39.652 669.511 39.892C670.015 40.132 670.435 40.462 670.771 40.882C671.107 41.29 671.359 41.77 671.527 42.322C671.707 42.862 671.797 43.444 671.797 44.068C671.797 44.128 671.791 44.2 671.779 44.284C671.779 44.356 671.779 44.416 671.779 44.464H664.309ZM671.095 43.87C671.071 43.366 670.987 42.892 670.843 42.448C670.699 41.992 670.483 41.596 670.195 41.26C669.919 40.912 669.577 40.636 669.169 40.432C668.773 40.228 668.317 40.126 667.801 40.126C667.249 40.126 666.763 40.234 666.343 40.45C665.923 40.654 665.569 40.93 665.281 41.278C664.993 41.614 664.771 42.01 664.615 42.466C664.459 42.922 664.363 43.39 664.327 43.87H671.095ZM675.977 41.8H676.031C676.115 41.5 676.265 41.218 676.481 40.954C676.709 40.69 676.979 40.462 677.291 40.27C677.615 40.078 677.969 39.934 678.353 39.838C678.749 39.73 679.157 39.682 679.577 39.694V40.378C679.217 40.33 678.803 40.366 678.335 40.486C677.879 40.606 677.441 40.87 677.021 41.278C676.853 41.458 676.703 41.632 676.571 41.8C676.451 41.968 676.349 42.154 676.265 42.358C676.181 42.562 676.115 42.79 676.067 43.042C676.019 43.294 675.989 43.594 675.977 43.942V49H675.293V39.748H675.977V41.8ZM682.241 39.748H682.925V41.638H682.961C683.033 41.35 683.159 41.08 683.339 40.828C683.519 40.564 683.735 40.336 683.987 40.144C684.251 39.952 684.539 39.802 684.851 39.694C685.175 39.586 685.511 39.532 685.859 39.532C686.303 39.532 686.687 39.592 687.011 39.712C687.335 39.82 687.611 39.97 687.839 40.162C688.067 40.342 688.247 40.552 688.379 40.792C688.511 41.02 688.601 41.254 688.649 41.494H688.685C688.961 40.846 689.327 40.36 689.783 40.036C690.251 39.7 690.863 39.532 691.619 39.532C692.039 39.532 692.423 39.598 692.771 39.73C693.131 39.85 693.437 40.042 693.689 40.306C693.953 40.558 694.157 40.882 694.301 41.278C694.445 41.674 694.517 42.142 694.517 42.682V49H693.833V42.664C693.833 42.076 693.743 41.614 693.563 41.278C693.383 40.942 693.167 40.69 692.915 40.522C692.675 40.342 692.429 40.234 692.177 40.198C691.937 40.15 691.751 40.126 691.619 40.126C691.199 40.126 690.809 40.198 690.449 40.342C690.101 40.486 689.795 40.702 689.531 40.99C689.279 41.278 689.081 41.638 688.937 42.07C688.793 42.49 688.721 42.976 688.721 43.528V49H688.037V42.664C688.037 42.088 687.947 41.632 687.767 41.296C687.599 40.948 687.395 40.69 687.155 40.522C686.927 40.354 686.687 40.246 686.435 40.198C686.195 40.15 686.003 40.126 685.859 40.126C685.535 40.126 685.199 40.192 684.851 40.324C684.503 40.456 684.185 40.66 683.897 40.936C683.609 41.212 683.375 41.566 683.195 41.998C683.015 42.43 682.925 42.94 682.925 43.528V49H682.241V39.748ZM704.967 44.374C704.967 43.714 705.057 43.096 705.237 42.52C705.429 41.932 705.705 41.416 706.065 40.972C706.425 40.528 706.869 40.18 707.397 39.928C707.925 39.664 708.531 39.532 709.215 39.532C709.899 39.532 710.505 39.664 711.033 39.928C711.561 40.18 712.005 40.528 712.365 40.972C712.725 41.416 712.995 41.932 713.175 42.52C713.367 43.096 713.463 43.714 713.463 44.374C713.463 45.034 713.367 45.658 713.175 46.246C712.995 46.834 712.725 47.35 712.365 47.794C712.005 48.226 711.561 48.574 711.033 48.838C710.505 49.09 709.899 49.216 709.215 49.216C708.531 49.216 707.925 49.09 707.397 48.838C706.869 48.574 706.425 48.226 706.065 47.794C705.705 47.35 705.429 46.834 705.237 46.246C705.057 45.658 704.967 45.034 704.967 44.374ZM705.651 44.374C705.651 44.926 705.729 45.46 705.885 45.976C706.041 46.48 706.269 46.93 706.569 47.326C706.869 47.722 707.241 48.04 707.685 48.28C708.129 48.508 708.639 48.622 709.215 48.622C709.791 48.622 710.301 48.508 710.745 48.28C711.189 48.04 711.561 47.722 711.861 47.326C712.161 46.93 712.389 46.48 712.545 45.976C712.701 45.46 712.779 44.926 712.779 44.374C712.779 43.822 712.701 43.294 712.545 42.79C712.389 42.274 712.161 41.818 711.861 41.422C711.561 41.026 711.189 40.714 710.745 40.486C710.301 40.246 709.791 40.126 709.215 40.126C708.639 40.126 708.129 40.246 707.685 40.486C707.241 40.714 706.869 41.026 706.569 41.422C706.269 41.818 706.041 42.274 705.885 42.79C705.729 43.294 705.651 43.822 705.651 44.374ZM715.979 40.342V39.748H717.635V37.84C717.635 37.516 717.689 37.24 717.797 37.012C717.905 36.772 718.049 36.58 718.229 36.436C718.421 36.292 718.637 36.184 718.877 36.112C719.129 36.04 719.393 36.004 719.669 36.004C719.873 36.004 720.143 36.034 720.479 36.094V36.688C720.143 36.628 719.873 36.598 719.669 36.598C719.285 36.598 718.961 36.688 718.697 36.868C718.445 37.036 718.319 37.378 718.319 37.894V39.748H720.245V40.342H718.319V49H717.635V40.342H715.979ZM731.097 36.148V43.852C731.097 44.104 731.109 44.398 731.133 44.734C731.157 45.07 731.217 45.418 731.313 45.778C731.409 46.126 731.541 46.474 731.709 46.822C731.889 47.158 732.129 47.464 732.429 47.74C732.729 48.004 733.095 48.22 733.527 48.388C733.971 48.544 734.505 48.622 735.129 48.622C735.921 48.622 736.581 48.514 737.109 48.298C737.649 48.07 738.081 47.752 738.405 47.344C738.741 46.924 738.981 46.42 739.125 45.832C739.269 45.244 739.341 44.584 739.341 43.852V36.148H740.133V43.852C740.133 44.62 740.049 45.334 739.881 45.994C739.725 46.654 739.455 47.23 739.071 47.722C738.687 48.214 738.171 48.604 737.523 48.892C736.887 49.168 736.089 49.306 735.129 49.306C734.373 49.306 733.725 49.21 733.185 49.018C732.645 48.826 732.195 48.58 731.835 48.28C731.487 47.968 731.211 47.614 731.007 47.218C730.803 46.822 730.647 46.426 730.539 46.03C730.431 45.622 730.365 45.232 730.341 44.86C730.317 44.476 730.305 44.14 730.305 43.852V36.148H731.097ZM744.516 45.922C744.54 46.354 744.636 46.738 744.804 47.074C744.972 47.398 745.188 47.68 745.452 47.92C745.728 48.148 746.046 48.322 746.406 48.442C746.766 48.562 747.156 48.622 747.576 48.622C747.876 48.622 748.194 48.598 748.53 48.55C748.878 48.49 749.196 48.388 749.484 48.244C749.784 48.1 750.03 47.902 750.222 47.65C750.414 47.386 750.51 47.056 750.51 46.66C750.51 46.144 750.354 45.754 750.042 45.49C749.73 45.226 749.334 45.022 748.854 44.878C748.386 44.734 747.876 44.62 747.324 44.536C746.784 44.44 746.274 44.302 745.794 44.122C745.326 43.942 744.936 43.69 744.624 43.366C744.312 43.03 744.156 42.544 744.156 41.908C744.156 41.452 744.258 41.074 744.462 40.774C744.666 40.462 744.924 40.216 745.236 40.036C745.56 39.856 745.92 39.73 746.316 39.658C746.712 39.574 747.108 39.532 747.504 39.532C747.984 39.532 748.434 39.586 748.854 39.694C749.274 39.802 749.634 39.976 749.934 40.216C750.246 40.456 750.486 40.762 750.654 41.134C750.834 41.506 750.924 41.956 750.924 42.484H750.24C750.24 42.064 750.168 41.704 750.024 41.404C749.892 41.104 749.7 40.864 749.448 40.684C749.208 40.492 748.92 40.354 748.584 40.27C748.248 40.174 747.888 40.126 747.504 40.126C747.192 40.126 746.874 40.156 746.55 40.216C746.238 40.276 745.956 40.378 745.704 40.522C745.452 40.666 745.242 40.852 745.074 41.08C744.918 41.308 744.84 41.584 744.84 41.908C744.84 42.28 744.93 42.58 745.11 42.808C745.29 43.036 745.524 43.222 745.812 43.366C746.112 43.498 746.442 43.606 746.802 43.69C747.174 43.774 747.546 43.858 747.918 43.942C748.374 44.026 748.8 44.128 749.196 44.248C749.604 44.356 749.952 44.512 750.24 44.716C750.54 44.908 750.774 45.16 750.942 45.472C751.11 45.784 751.194 46.18 751.194 46.66C751.194 47.164 751.08 47.578 750.852 47.902C750.624 48.226 750.336 48.49 749.988 48.694C749.64 48.886 749.25 49.018 748.818 49.09C748.398 49.174 747.984 49.216 747.576 49.216C747.048 49.216 746.556 49.144 746.1 49C745.656 48.868 745.266 48.664 744.93 48.388C744.594 48.1 744.33 47.752 744.138 47.344C743.946 46.936 743.844 46.462 743.832 45.922H744.516ZM755.048 44.464V44.572C755.048 45.112 755.12 45.628 755.264 46.12C755.408 46.612 755.618 47.044 755.894 47.416C756.182 47.788 756.536 48.082 756.956 48.298C757.388 48.514 757.886 48.622 758.45 48.622C759.374 48.622 760.106 48.382 760.646 47.902C761.186 47.41 761.558 46.732 761.762 45.868H762.446C762.242 46.948 761.798 47.776 761.114 48.352C760.442 48.928 759.548 49.216 758.432 49.216C757.748 49.216 757.148 49.096 756.632 48.856C756.128 48.604 755.702 48.268 755.354 47.848C755.018 47.416 754.766 46.912 754.598 46.336C754.43 45.748 754.346 45.118 754.346 44.446C754.346 43.798 754.43 43.18 754.598 42.592C754.778 41.992 755.042 41.47 755.39 41.026C755.738 40.57 756.17 40.21 756.686 39.946C757.214 39.67 757.832 39.532 758.54 39.532C759.188 39.532 759.758 39.652 760.25 39.892C760.754 40.132 761.174 40.462 761.51 40.882C761.846 41.29 762.098 41.77 762.266 42.322C762.446 42.862 762.536 43.444 762.536 44.068C762.536 44.128 762.53 44.2 762.518 44.284C762.518 44.356 762.518 44.416 762.518 44.464H755.048ZM761.834 43.87C761.81 43.366 761.726 42.892 761.582 42.448C761.438 41.992 761.222 41.596 760.934 41.26C760.658 40.912 760.316 40.636 759.908 40.432C759.512 40.228 759.056 40.126 758.54 40.126C757.988 40.126 757.502 40.234 757.082 40.45C756.662 40.654 756.308 40.93 756.02 41.278C755.732 41.614 755.51 42.01 755.354 42.466C755.198 42.922 755.102 43.39 755.066 43.87H761.834Z" fill="black"/>
<path d="M804.634 36.148H810.106C810.466 36.148 810.862 36.19 811.294 36.274C811.738 36.358 812.146 36.532 812.518 36.796C812.902 37.048 813.22 37.414 813.472 37.894C813.724 38.362 813.85 38.98 813.85 39.748C813.85 40.876 813.502 41.746 812.806 42.358C812.11 42.97 811.114 43.276 809.818 43.276H805.426V49H804.634V36.148ZM805.426 42.592H809.944C810.52 42.592 811.006 42.508 811.402 42.34C811.81 42.16 812.134 41.932 812.374 41.656C812.614 41.38 812.788 41.074 812.896 40.738C813.004 40.402 813.058 40.066 813.058 39.73C813.058 39.49 813.022 39.208 812.95 38.884C812.878 38.548 812.734 38.23 812.518 37.93C812.302 37.618 811.996 37.36 811.6 37.156C811.216 36.94 810.7 36.832 810.052 36.832H805.426V42.592ZM817.395 41.8H817.449C817.533 41.5 817.683 41.218 817.899 40.954C818.127 40.69 818.397 40.462 818.709 40.27C819.033 40.078 819.387 39.934 819.771 39.838C820.167 39.73 820.575 39.682 820.995 39.694V40.378C820.635 40.33 820.221 40.366 819.753 40.486C819.297 40.606 818.859 40.87 818.439 41.278C818.271 41.458 818.121 41.632 817.989 41.8C817.869 41.968 817.767 42.154 817.683 42.358C817.599 42.562 817.533 42.79 817.485 43.042C817.437 43.294 817.407 43.594 817.395 43.942V49H816.711V39.748H817.395V41.8ZM823.803 38.002V36.148H824.487V38.002H823.803ZM823.803 49V39.748H824.487V49H823.803ZM832.112 49H831.266L827.54 39.748H828.332L831.68 48.208H831.716L834.848 39.748H835.604L832.112 49ZM844.64 47.164H844.604C844.496 47.44 844.34 47.704 844.136 47.956C843.932 48.196 843.68 48.412 843.38 48.604C843.092 48.796 842.762 48.946 842.39 49.054C842.018 49.162 841.61 49.216 841.166 49.216C840.182 49.216 839.42 49.006 838.88 48.586C838.34 48.154 838.07 47.494 838.07 46.606C838.07 46.066 838.178 45.628 838.394 45.292C838.61 44.944 838.88 44.674 839.204 44.482C839.54 44.278 839.906 44.134 840.302 44.05C840.71 43.966 841.1 43.906 841.472 43.87L842.534 43.78C843.026 43.744 843.41 43.69 843.686 43.618C843.974 43.534 844.19 43.426 844.334 43.294C844.478 43.15 844.568 42.97 844.604 42.754C844.64 42.538 844.658 42.268 844.658 41.944C844.658 41.692 844.61 41.458 844.514 41.242C844.418 41.026 844.268 40.834 844.064 40.666C843.86 40.498 843.596 40.366 843.272 40.27C842.948 40.174 842.552 40.126 842.084 40.126C841.256 40.126 840.584 40.33 840.068 40.738C839.564 41.146 839.288 41.764 839.24 42.592H838.556C838.604 41.572 838.928 40.81 839.528 40.306C840.14 39.79 841.004 39.532 842.12 39.532C843.236 39.532 844.046 39.754 844.55 40.198C845.066 40.63 845.324 41.2 845.324 41.908V47.29C845.324 47.422 845.324 47.554 845.324 47.686C845.336 47.818 845.36 47.938 845.396 48.046C845.432 48.154 845.492 48.244 845.576 48.316C845.66 48.376 845.78 48.406 845.936 48.406C846.056 48.406 846.224 48.388 846.44 48.352V48.928C846.26 48.976 846.074 49 845.882 49C845.606 49 845.384 48.964 845.216 48.892C845.06 48.82 844.94 48.724 844.856 48.604C844.772 48.484 844.712 48.346 844.676 48.19C844.652 48.022 844.64 47.842 844.64 47.65V47.164ZM844.64 43.744C844.472 43.948 844.214 44.086 843.866 44.158C843.53 44.23 843.152 44.284 842.732 44.32L841.58 44.428C841.244 44.464 840.908 44.518 840.572 44.59C840.236 44.65 839.93 44.758 839.654 44.914C839.39 45.07 839.174 45.286 839.006 45.562C838.838 45.826 838.754 46.174 838.754 46.606C838.754 47.29 838.97 47.8 839.402 48.136C839.834 48.46 840.428 48.622 841.184 48.622C841.964 48.622 842.582 48.484 843.038 48.208C843.494 47.92 843.842 47.596 844.082 47.236C844.322 46.864 844.472 46.51 844.532 46.174C844.604 45.826 844.64 45.592 844.64 45.472V43.744ZM856.388 42.61C856.352 42.202 856.244 41.842 856.064 41.53C855.896 41.218 855.674 40.96 855.398 40.756C855.122 40.552 854.798 40.396 854.426 40.288C854.066 40.18 853.676 40.126 853.256 40.126C852.68 40.126 852.17 40.246 851.726 40.486C851.282 40.714 850.91 41.026 850.61 41.422C850.31 41.806 850.082 42.25 849.926 42.754C849.77 43.246 849.692 43.756 849.692 44.284C849.692 44.908 849.764 45.484 849.908 46.012C850.052 46.54 850.274 47.002 850.574 47.398C850.874 47.782 851.246 48.082 851.69 48.298C852.134 48.514 852.656 48.622 853.256 48.622C853.688 48.622 854.084 48.55 854.444 48.406C854.816 48.262 855.14 48.064 855.416 47.812C855.704 47.56 855.938 47.26 856.118 46.912C856.298 46.552 856.418 46.162 856.478 45.742H857.162C857.09 46.294 856.94 46.786 856.712 47.218C856.484 47.65 856.196 48.016 855.848 48.316C855.5 48.604 855.104 48.826 854.66 48.982C854.216 49.138 853.748 49.216 853.256 49.216C852.5 49.216 851.852 49.084 851.312 48.82C850.784 48.544 850.346 48.178 849.998 47.722C849.662 47.266 849.41 46.744 849.242 46.156C849.086 45.556 849.008 44.932 849.008 44.284C849.008 43.636 849.098 43.024 849.278 42.448C849.47 41.872 849.746 41.368 850.106 40.936C850.466 40.504 850.91 40.162 851.438 39.91C851.966 39.658 852.572 39.532 853.256 39.532C853.76 39.532 854.228 39.598 854.66 39.73C855.104 39.85 855.494 40.036 855.83 40.288C856.178 40.54 856.46 40.864 856.676 41.26C856.892 41.644 857.024 42.094 857.072 42.61H856.388ZM859.56 39.748H860.37L863.808 48.19L866.976 39.748H867.75L863.79 49.99C863.598 50.446 863.418 50.836 863.25 51.16C863.094 51.496 862.914 51.742 862.71 51.898C862.47 52.09 862.182 52.204 861.846 52.24C861.522 52.288 861.09 52.312 860.55 52.312V51.718C861.042 51.718 861.426 51.676 861.702 51.592C861.978 51.52 862.236 51.364 862.476 51.124C862.608 50.992 862.746 50.746 862.89 50.386C863.034 50.038 863.214 49.558 863.43 48.946L859.56 39.748ZM877.65 36.148H883.122C883.482 36.148 883.878 36.19 884.31 36.274C884.754 36.358 885.162 36.532 885.534 36.796C885.918 37.048 886.236 37.414 886.488 37.894C886.74 38.362 886.866 38.98 886.866 39.748C886.866 40.876 886.518 41.746 885.822 42.358C885.126 42.97 884.13 43.276 882.834 43.276H878.442V49H877.65V36.148ZM878.442 42.592H882.96C883.536 42.592 884.022 42.508 884.418 42.34C884.826 42.16 885.15 41.932 885.39 41.656C885.63 41.38 885.804 41.074 885.912 40.738C886.02 40.402 886.074 40.066 886.074 39.73C886.074 39.49 886.038 39.208 885.966 38.884C885.894 38.548 885.75 38.23 885.534 37.93C885.318 37.618 885.012 37.36 884.616 37.156C884.232 36.94 883.716 36.832 883.068 36.832H878.442V42.592ZM888.891 44.374C888.891 43.714 888.981 43.096 889.161 42.52C889.353 41.932 889.629 41.416 889.989 40.972C890.349 40.528 890.793 40.18 891.321 39.928C891.849 39.664 892.455 39.532 893.139 39.532C893.823 39.532 894.429 39.664 894.957 39.928C895.485 40.18 895.929 40.528 896.289 40.972C896.649 41.416 896.919 41.932 897.099 42.52C897.291 43.096 897.387 43.714 897.387 44.374C897.387 45.034 897.291 45.658 897.099 46.246C896.919 46.834 896.649 47.35 896.289 47.794C895.929 48.226 895.485 48.574 894.957 48.838C894.429 49.09 893.823 49.216 893.139 49.216C892.455 49.216 891.849 49.09 891.321 48.838C890.793 48.574 890.349 48.226 889.989 47.794C889.629 47.35 889.353 46.834 889.161 46.246C888.981 45.658 888.891 45.034 888.891 44.374ZM889.575 44.374C889.575 44.926 889.653 45.46 889.809 45.976C889.965 46.48 890.193 46.93 890.493 47.326C890.793 47.722 891.165 48.04 891.609 48.28C892.053 48.508 892.563 48.622 893.139 48.622C893.715 48.622 894.225 48.508 894.669 48.28C895.113 48.04 895.485 47.722 895.785 47.326C896.085 46.93 896.313 46.48 896.469 45.976C896.625 45.46 896.703 44.926 896.703 44.374C896.703 43.822 896.625 43.294 896.469 42.79C896.313 42.274 896.085 41.818 895.785 41.422C895.485 41.026 895.113 40.714 894.669 40.486C894.225 40.246 893.715 40.126 893.139 40.126C892.563 40.126 892.053 40.246 891.609 40.486C891.165 40.714 890.793 41.026 890.493 41.422C890.193 41.818 889.965 42.274 889.809 42.79C889.653 43.294 889.575 43.822 889.575 44.374ZM901.757 36.148V49H901.073V36.148H901.757ZM906.017 38.002V36.148H906.701V38.002H906.017ZM906.017 49V39.748H906.701V49H906.017ZM917.764 42.61C917.728 42.202 917.62 41.842 917.44 41.53C917.272 41.218 917.05 40.96 916.774 40.756C916.498 40.552 916.174 40.396 915.802 40.288C915.442 40.18 915.052 40.126 914.632 40.126C914.056 40.126 913.546 40.246 913.102 40.486C912.658 40.714 912.286 41.026 911.986 41.422C911.686 41.806 911.458 42.25 911.302 42.754C911.146 43.246 911.068 43.756 911.068 44.284C911.068 44.908 911.14 45.484 911.284 46.012C911.428 46.54 911.65 47.002 911.95 47.398C912.25 47.782 912.622 48.082 913.066 48.298C913.51 48.514 914.032 48.622 914.632 48.622C915.064 48.622 915.46 48.55 915.82 48.406C916.192 48.262 916.516 48.064 916.792 47.812C917.08 47.56 917.314 47.26 917.494 46.912C917.674 46.552 917.794 46.162 917.854 45.742H918.538C918.466 46.294 918.316 46.786 918.088 47.218C917.86 47.65 917.572 48.016 917.224 48.316C916.876 48.604 916.48 48.826 916.036 48.982C915.592 49.138 915.124 49.216 914.632 49.216C913.876 49.216 913.228 49.084 912.688 48.82C912.16 48.544 911.722 48.178 911.374 47.722C911.038 47.266 910.786 46.744 910.618 46.156C910.462 45.556 910.384 44.932 910.384 44.284C910.384 43.636 910.474 43.024 910.654 42.448C910.846 41.872 911.122 41.368 911.482 40.936C911.842 40.504 912.286 40.162 912.814 39.91C913.342 39.658 913.948 39.532 914.632 39.532C915.136 39.532 915.604 39.598 916.036 39.73C916.48 39.85 916.87 40.036 917.206 40.288C917.554 40.54 917.836 40.864 918.052 41.26C918.268 41.644 918.4 42.094 918.448 42.61H917.764ZM920.936 39.748H921.746L925.184 48.19L928.352 39.748H929.126L925.166 49.99C924.974 50.446 924.794 50.836 924.626 51.16C924.47 51.496 924.29 51.742 924.086 51.898C923.846 52.09 923.558 52.204 923.222 52.24C922.898 52.288 922.466 52.312 921.926 52.312V51.718C922.418 51.718 922.802 51.676 923.078 51.592C923.354 51.52 923.612 51.364 923.852 51.124C923.984 50.992 924.122 50.746 924.266 50.386C924.41 50.038 924.59 49.558 924.806 48.946L920.936 39.748Z" fill="black"/>
</svg>
