<svg width="23" height="24" viewBox="0 0 23 24" fill="none" xmlns="http://www.w3.org/2000/svg">
<path d="M18.8285 23.9969C17.6671 23.9969 16.4379 23.711 15.1659 23.4136C13.8584 23.1089 12.5165 22.7927 11.1882 22.7927C9.85878 22.7927 8.55339 23.1162 7.29078 23.4292C4.69565 24.0741 2.24661 24.6845 0.151304 22.1155L0 21.8963L0.0396522 21.6459C0.625043 17.7464 2.62122 14.6087 5.65774 12.816L6.03965 12.5906L6.34852 12.9172C7.00144 13.6269 7.79414 14.1938 8.67678 14.5822C9.55942 14.9706 10.5129 15.1722 11.4772 15.1743C13.417 15.1743 15.2713 14.3583 16.6049 12.9172L16.9085 12.5906L17.2957 12.816C20.3353 14.6139 22.3315 17.7496 22.9169 21.6449L22.9565 21.913L22.7916 22.1155C22.3295 22.7229 21.7284 23.2108 21.0389 23.5381C20.3493 23.8655 19.5914 24.0228 18.8285 23.9969ZM11.2007 22.271C12.5875 22.271 13.9628 22.5923 15.2922 22.9054C18.0803 23.5576 20.4897 24.1221 22.3972 21.7816L22.415 21.7607V21.7357C21.8525 17.9896 19.9461 14.9937 17.0452 13.2783L17.0077 13.2574L16.9795 13.2887C16.2786 14.0462 15.4291 14.651 14.484 15.0654C13.539 15.4797 12.5186 15.6948 11.4866 15.697C10.4546 15.6951 9.43401 15.4802 8.48873 15.066C7.54344 14.6518 6.69373 14.0471 5.99269 13.2897L5.96139 13.2574L5.92487 13.2783C3.00835 14.9937 1.10087 17.9948 0.540522 21.7357V21.7628L0.559304 21.7837C2.44591 24.0981 4.64035 23.5523 7.1833 22.921C8.46261 22.6028 9.792 22.271 11.2007 22.271ZM11.4751 14.1694C7.64974 14.1694 4.54852 10.9972 4.54852 7.08417C4.54852 3.17113 7.64974 0 11.4751 0C15.3016 0 18.4028 3.17217 18.4028 7.08522C18.3976 10.9962 15.2995 14.1652 11.4751 14.1704V14.1694ZM11.4751 0.52487C8.88 0.52487 6.53948 2.12348 5.54817 4.5767C4.55374 7.02887 5.10365 9.85252 6.93913 11.7287C7.8254 12.6434 8.96762 13.2686 10.2157 13.5223C11.4639 13.7759 12.7595 13.6461 13.9325 13.1499C16.3304 12.1336 17.8936 9.73983 17.8925 7.08522C17.8894 3.46122 15.0188 0.523826 11.4751 0.518609V0.52487Z" fill="black"/>
</svg>
