<svg width="40" height="31" viewBox="0 0 40 31" fill="none" xmlns="http://www.w3.org/2000/svg">
<path fill-rule="evenodd" clip-rule="evenodd" d="M23.0035 21.9299L16.437 12.8999L23.3935 21.6352C23.4735 21.7345 23.4522 21.8831 23.3457 21.967C23.2396 22.0503 23.0892 22.0371 23.0096 21.9383C23.0073 21.9357 23.0053 21.9329 23.0035 21.9299Z" fill="#010202"/>
<path d="M23.0471 21.573C23.4106 22.0371 23.7453 26.1127 23.7453 26.1127C23.7453 26.1127 26.128 23.418 26.6653 19.6394C27.2019 15.8607 26.4697 15.3555 25.834 13.4364C25.1984 11.5173 22.5167 9.04318 21.1445 8.36377C20.1549 7.87406 16.9862 6.76053 15.2697 6.16891C14.6514 5.95715 13.9545 6.30656 13.7349 6.9348C12.7158 9.8545 12.5223 12.9776 13.3627 15.8527C13.8614 17.5574 14.7188 19.1677 16.1853 19.9566C16.1853 19.9566 19.601 21.6595 21.8753 21.2289C24.1488 20.7983 23.7306 25.1377 23.7306 25.1377" stroke="#010202" stroke-width="0.5" stroke-linecap="round" stroke-linejoin="round"/>
<path fill-rule="evenodd" clip-rule="evenodd" d="M20.4783 29.8626L18.733 30.1679L17.1104 29.4479L15.3443 29.3204L13.9387 28.2272L12.2535 27.6744L11.147 26.2715L9.6413 25.326L8.89739 23.6954L7.65826 22.4116L7.32087 20.6469L6.42087 19.0997L6.50913 17.305L6 15.584L6.5087 13.8629L6.42087 12.0682L7.32087 10.5206L7.65826 8.75677L8.89739 7.47294L9.64087 5.84191L11.147 4.89603L12.2535 3.49309L13.9387 2.94074L15.3443 1.8475L17.1104 1.72L18.733 1L20.4783 1.30529L22.2235 1L23.8461 1.72L25.6122 1.8475L27.0178 2.94074L28.703 3.49353L29.8096 4.89647L31.3152 5.84191L32.0591 7.4725L33.2983 8.75632L33.6356 10.521L34.5356 12.0682L34.4474 13.8629L34.9565 15.584L34.4478 17.305L34.5356 19.0997L33.6356 20.6474L33.2983 22.4112L32.0591 23.695L31.3157 25.326L29.8096 26.2719L28.703 27.6749L27.0178 28.2272L25.6122 29.3204L23.8461 29.4479L22.2235 30.1679L20.4783 29.8626Z" stroke="black" stroke-width="0.5"/>
</svg>
